<?xml version="1.0" encoding="utf-8"?>
<!-- Generator: Adobe Illustrator 15.0.0, SVG Export Plug-In . SVG Version: 6.00 Build 0)  -->
<!DOCTYPE svg PUBLIC "-//W3C//DTD SVG 1.1//EN" "http://www.w3.org/Graphics/SVG/1.1/DTD/svg11.dtd">
<svg version="1.1" xmlns="http://www.w3.org/2000/svg" xmlns:xlink="http://www.w3.org/1999/xlink" x="0px" y="0px"
	 width="595.28px" height="841.89px" viewBox="0 0 595.28 841.89" enable-background="new 0 0 595.28 841.89" xml:space="preserve">
<g id="Layer_3">
	<path fill="#222831" d="M5.831,377.983v297.97c0,41.314,33.491,74.807,74.806,74.807h434.006c41.314,0,74.807-33.492,74.807-74.807
		v-297.97H5.831z"/>
</g>
<g id="Layer_4">
	<path fill="#F05454" d="M589.449,424.964V172.263c0-41.314-33.492-74.806-74.807-74.806H80.638
		c-41.314,0-74.807,33.492-74.807,74.806v252.701l99.65,175.639l385.165-198.681l13.527-6.978l7.541-3.891l10.746-5.543
		L589.449,424.964z"/>
</g>
<g id="Layer_5">
	<ellipse fill="#DDDDDD" cx="297.64" cy="430.945" rx="184.991" ry="178.962"/>
</g>
<g id="Layer_7">
	<g>
		<path fill="#DDDDDD" d="M440.801,293.422c-3.44,3.594-9.579,3.309-13.887-0.332c-74.506-63.133-184.042-63.133-258.548,0
			c-4.307,3.641-10.446,3.926-13.886,0.332c-3.436-3.586-2.51-10.037,2.259-14.073c81.208-68.811,200.595-68.811,281.803,0
			C443.311,283.385,444.236,289.836,440.801,293.422z"/>
	</g>
	<g>
		<path fill="#DDDDDD" d="M440.801,568.293c-3.44-3.595-9.579-3.31-13.887,0.332c-74.506,63.133-184.042,63.133-258.548,0
			c-4.307-3.642-10.446-3.927-13.886-0.332c-3.436,3.586-2.51,10.037,2.259,14.072c81.208,68.812,200.595,68.812,281.803,0
			C443.311,578.33,444.236,571.879,440.801,568.293z"/>
	</g>
</g>
<g id="Layer_2">
	<g>
		<g>

				<text transform="matrix(0.8442 0 0 1 153.6338 454.4434)" fill="#30475E" font-family="'Manrope-ExtraBold'" font-size="86.9781">Rapture</text>
		</g>
	</g>
</g>
<g id="Layer_6" data-aos="zoom-out-up">

		<text transform="matrix(1.0014 0 0 1.0795 212.0825 541.6377)" fill="#222831" font-family="'Manrope-Light'" font-size="40.04" letter-spacing="7.988">design</text>
</g>
</svg>
