<?xml version="1.0" encoding="utf-8"?>
<!-- Generator: Adobe Illustrator 15.0.0, SVG Export Plug-In . SVG Version: 6.00 Build 0)  -->
<!DOCTYPE svg PUBLIC "-//W3C//DTD SVG 1.1//EN" "http://www.w3.org/Graphics/SVG/1.1/DTD/svg11.dtd">
<svg version="1.1" id="Layer_1" xmlns="http://www.w3.org/2000/svg" xmlns:xlink="http://www.w3.org/1999/xlink" x="0px" y="0px"
	 width="1119.415px" height="284.236px" viewBox="0 0 1119.415 284.236" enable-background="new 0 0 1119.415 284.236"
	 xml:space="preserve">
<g>
	
		<linearGradient id="SVGID_1_" gradientUnits="userSpaceOnUse" x1="-123.292" y1="-20.4834" x2="-122.292" y2="-20.4834" gradientTransform="matrix(-327.109 -670.673 670.673 -327.109 -25869.8789 -88911.7344)">
		<stop  offset="0" style="stop-color:#FBB041"/>
		<stop  offset="1" style="stop-color:#FDE500"/>
	</linearGradient>
	<rect fill="url(#SVGID_1_)" width="1119.415" height="284.236"/>
	
		<linearGradient id="SVGID_2_" gradientUnits="userSpaceOnUse" x1="-123.292" y1="-20.481" x2="-122.292" y2="-20.481" gradientTransform="matrix(51.3283 228.647 -228.647 51.3283 1824.7197 29269.4609)">
		<stop  offset="0" style="stop-color:#FBB041"/>
		<stop  offset="1" style="stop-color:#FDE500"/>
	</linearGradient>
	<path fill="url(#SVGID_2_)" d="M282.877,230.416c-47.545,42.004-121.004,36.524-164.078-12.241
		C75.728,169.409,79.355,95.826,126.9,53.82c47.545-42.005,121.005-36.526,164.078,12.24
		C334.05,114.826,330.424,188.411,282.877,230.416z"/>
	<text transform="matrix(1 0 0 1 369.415 94.6934)"><tspan x="0" y="0" fill="#FFFFFF" font-family="'Roboto-Light'" font-size="60">Hap</tspan><tspan x="107.842" y="0" fill="#FFFFFF" font-family="'Roboto-Light'" font-size="60">p</tspan><tspan x="140.794" y="0" fill="#FFFFFF" font-family="'Roboto-Light'" font-size="60">y Envi</tspan><tspan x="293.284" y="0" fill="#FFFFFF" font-family="'Roboto-Light'" font-size="60">r</tspan><tspan x="312.93" y="0" fill="#FFFFFF" font-family="'Roboto-Light'" font-size="60">onment </tspan><tspan x="530.488" y="0" fill="#FFFFFF" font-family="'Roboto-Light'" font-size="60">A</tspan><tspan x="566.999" y="0" fill="#FFFFFF" font-family="'Roboto-Light'" font-size="60">wa</tspan><tspan x="644.372" y="0" fill="#FFFFFF" font-family="'Roboto-Light'" font-size="60">r</tspan><tspan x="664.018" y="0" fill="#FFFFFF" font-family="'Roboto-Light'" font-size="60">d</tspan></text>
	<text transform="matrix(1 0 0 1 139.3506 161.6362)" fill="#FFFFFF" font-family="'Roboto-Medium'" font-size="60">2020</text>
	<polygon fill="#FFFFFF" points="476.593,261.658 483.374,239.778 464.659,226.568 487.564,226.254 494.344,204.375 501.72,226.061 
		524.624,225.749 506.278,239.464 513.654,261.151 494.939,247.942 	"/>
	<polygon fill="#FFFFFF" points="581.934,261.658 588.715,239.778 570,226.568 592.904,226.254 599.686,204.375 607.061,226.061 
		629.965,225.749 611.619,239.464 618.994,261.151 600.28,247.942 	"/>
	<polygon fill="#FFFFFF" points="683.449,261.658 690.229,239.778 671.516,226.568 694.42,226.254 701.2,204.375 708.576,226.061 
		731.48,225.749 713.134,239.464 720.51,261.151 701.795,247.942 	"/>
	<polygon fill="#FFFFFF" points="778.108,261.658 784.889,239.778 766.174,226.568 789.079,226.254 795.859,204.375 
		803.234,226.061 826.139,225.749 807.793,239.464 815.169,261.151 796.455,247.942 	"/>
	<polygon fill="#FFFFFF" points="883.449,261.658 890.229,239.778 871.516,226.568 894.42,226.254 901.2,204.375 908.576,226.061 
		931.48,225.749 913.134,239.464 920.51,261.151 901.795,247.942 	"/>
	<text transform="matrix(1 0 0 1 369.415 142.1177)"><tspan x="0" y="0" fill="#FFFFFF" font-family="'Roboto-Medium'" font-size="36">Shi</tspan><tspan x="50.906" y="0" fill="#FFFFFF" font-family="'Roboto-Medium'" font-size="36">z</tspan><tspan x="68.76" y="0" fill="#FFFFFF" font-family="'Roboto-Medium'" font-size="36">en Mask Co</tspan></text>
	<text transform="matrix(1 0 0 1 367.415 187.5718)"><tspan x="0" y="0" fill="#FFFFFF" font-family="'Roboto-Medium'" font-size="36">Sou</tspan><tspan x="62.227" y="0" fill="#FFFFFF" font-family="'Roboto-Medium'" font-size="36">r</tspan><tspan x="74.559" y="0" fill="#FFFFFF" font-family="'Roboto-Medium'" font-size="36">cing goods in an envi</tspan><tspan x="414.238" y="0" fill="#FFFFFF" font-family="'Roboto-Medium'" font-size="36">r</tspan><tspan x="426.283" y="0" fill="#FFFFFF" font-family="'Roboto-Medium'" font-size="36">onmental w</tspan><tspan x="613.824" y="0" fill="#FFFFFF" font-family="'Roboto-Medium'" font-size="36">a</tspan><tspan x="633.048" y="0" fill="#FFFFFF" font-family="'Roboto-Medium'" font-size="36">y</tspan></text>
</g>
<linearGradient id="SVGID_3_" gradientUnits="userSpaceOnUse" x1="129.52" y1="64.8823" x2="130.5205" y2="64.8823" gradientTransform="matrix(154.9296 108.8186 105.4237 -162.6975 -27456.5781 -3141.3208)">
	<stop  offset="0" style="stop-color:#196586"/>
	<stop  offset="0.4317" style="stop-color:#2684AC"/>
	<stop  offset="0.8044" style="stop-color:#2C9FD0"/>
	<stop  offset="1" style="stop-color:#2BACE2"/>
</linearGradient>
<path fill="url(#SVGID_3_)" d="M-378.802,459.74c-4.799,52.771-50.689,91.729-102.501,87.018
	c-51.81-4.712-89.919-51.31-85.12-104.08s50.689-91.729,102.5-87.019C-412.113,360.371-374.003,406.969-378.802,459.74z"/>
<linearGradient id="SVGID_4_" gradientUnits="userSpaceOnUse" x1="154.207" y1="47.3589" x2="155.208" y2="47.3589" gradientTransform="matrix(-30.8726 -63.2981 63.2981 -30.8726 1278.6743 11706.0078)">
	<stop  offset="0" style="stop-color:#196586"/>
	<stop  offset="0.4292" style="stop-color:#2684AC"/>
	<stop  offset="0.8037" style="stop-color:#2C9FD0"/>
	<stop  offset="1" style="stop-color:#2BACE2"/>
</linearGradient>
<polygon fill="url(#SVGID_4_)" points="-463.486,451.208 -481.644,481.569 -517.96,481.569 -536.119,451.208 -517.96,420.847 
	-481.644,420.847 "/>
</svg>
